<mxfile host="app.diagrams.net" modified="2024-10-21T13:47:37.610Z" agent="Mozilla/5.0 (Windows NT 10.0; Win64; x64) AppleWebKit/537.36 (KHTML, like Gecko) Chrome/129.0.0.0 Safari/537.36" version="24.4.9" etag="l30b-0fO959ar2aNZjnj" type="github">
  <diagram name="Page-1" id="-g3JtgwhmLHElCY6Yaju">
    <mxGraphModel>
      <root>
        <mxCell id="0" />
        <mxCell id="1" parent="0" />
      </root>
    </mxGraphModel>
  </diagram>
</mxfile>
